<svg width="24" height="24" viewBox="0 0 24 24" fill="none" xmlns="http://www.w3.org/2000/svg">
<path d="M21.7778 3.44444V2.22222C21.7778 1.55 21.2278 1 20.5556 1H18.1111C17.4389 1 16.8889 1.55 16.8889 2.22222V3.44444H15.6667V8.33333C15.6667 9.00556 16.2167 9.55556 16.8889 9.55556H18.1111V18.1111C18.1111 19.4556 17.0111 20.5556 15.6667 20.5556C14.3222 20.5556 13.2222 19.4556 13.2222 18.1111V5.88889C13.2222 3.18778 11.0344 1 8.33333 1C5.63222 1 3.44444 3.18778 3.44444 5.88889V14.4444H2.22222C1.55 14.4444 1 14.9944 1 15.6667V20.5556H2.22222V21.7778C2.22222 22.45 2.77222 23 3.44444 23H5.88889C6.56111 23 7.11111 22.45 7.11111 21.7778V20.5556H8.33333V15.6667C8.33333 14.9944 7.78333 14.4444 7.11111 14.4444H5.88889V5.88889C5.88889 4.54444 6.98889 3.44444 8.33333 3.44444C9.67778 3.44444 10.7778 4.54444 10.7778 5.88889V18.1111C10.7778 20.8122 12.9656 23 15.6667 23C18.3678 23 20.5556 20.8122 20.5556 18.1111V9.55556H21.7778C22.45 9.55556 23 9.00556 23 8.33333V3.44444H21.7778Z" fill="#E08A12"/>
</svg>
