<svg width="41" height="40" viewBox="0 0 41 40" fill="none" xmlns="http://www.w3.org/2000/svg">
<g clip-path="url(#clip0_1_203019)">
<path d="M20.5 0C15.1969 0 10.1062 2.10844 6.35938 5.85781C2.60866 9.6087 0.501073 14.6956 0.5 20C0.5 25.3022 2.60938 30.3928 6.35938 34.1422C10.1062 37.8916 15.1969 40 20.5 40C25.8031 40 30.8937 37.8916 34.6406 34.1422C38.3906 30.3928 40.5 25.3022 40.5 20C40.5 14.6978 38.3906 9.60719 34.6406 5.85781C30.8937 2.10844 25.8031 0 20.5 0Z" fill="url(#paint0_linear_1_203019)"/>
<path d="M9.5534 19.7888C15.3846 17.2488 19.2721 15.5742 21.2159 14.765C26.7721 12.4547 27.9253 12.0534 28.6784 12.0399C28.844 12.0372 29.2128 12.0781 29.4534 12.2727C29.6534 12.4367 29.7096 12.6586 29.7378 12.8144C29.7628 12.97 29.7971 13.3247 29.769 13.6016C29.469 16.7641 28.1659 24.4384 27.5034 27.9806C27.2253 29.4794 26.6721 29.9819 26.1378 30.0309C24.9753 30.1378 24.094 29.2634 22.969 28.5263C21.2096 27.3722 20.2159 26.6541 18.5065 25.5281C16.5315 24.2269 17.8128 23.5116 18.9378 22.3428C19.2315 22.0369 24.3503 17.3822 24.4471 16.96C24.4596 16.9072 24.4721 16.7103 24.3534 16.6066C24.2378 16.5025 24.0659 16.5381 23.9409 16.5663C23.7628 16.6063 20.9534 18.465 15.5034 22.1422C14.7065 22.6903 13.9846 22.9575 13.3346 22.9434C12.6221 22.9281 11.2471 22.5397 10.2253 22.2078C8.97527 21.8006 7.9784 21.5853 8.0659 20.8938C8.10965 20.5338 8.60652 20.1653 9.5534 19.7888Z" fill="white"/>
</g>
<defs>
<linearGradient id="paint0_linear_1_203019" x1="2000.5" y1="0" x2="2000.5" y2="4000" gradientUnits="userSpaceOnUse">
<stop stop-color="#2AABEE"/>
<stop offset="1" stop-color="#229ED9"/>
</linearGradient>
<clipPath id="clip0_1_203019">
<rect width="40" height="40" fill="white" transform="translate(0.5)"/>
</clipPath>
</defs>
</svg>
