<svg width="41" height="40" viewBox="0 0 41 40" fill="none" xmlns="http://www.w3.org/2000/svg">
<path d="M0.5 19.2C0.5 10.149 0.5 5.62355 3.31177 2.81177C6.12355 0 10.649 0 19.7 0H21.3C30.351 0 34.8765 0 37.6882 2.81177C40.5 5.62355 40.5 10.149 40.5 19.2V20.8C40.5 29.851 40.5 34.3765 37.6882 37.1882C34.8765 40 30.351 40 21.3 40H19.7C10.649 40 6.12355 40 3.31177 37.1882C0.5 34.3765 0.5 29.851 0.5 20.8V19.2Z" fill="#0077FF"/>
<path d="M21.7833 28.8167C12.6666 28.8167 7.46667 22.5667 7.25 12.1667H11.8167C11.9667 19.8001 15.3333 23.0334 17.9999 23.7001V12.1667H22.3V18.7501C24.9334 18.4667 27.6997 15.4667 28.6331 12.1667H32.9332C32.2165 16.2334 29.2165 19.2334 27.0832 20.4667C29.2165 21.4667 32.6334 24.0834 33.9333 28.8167H29.1999C28.1832 25.6501 25.65 23.2001 22.3 22.8667V28.8167H21.7833Z" fill="white"/>
</svg>
