<svg width="24" height="25" viewBox="0 0 24 25" fill="none" xmlns="http://www.w3.org/2000/svg">
<path d="M22 12.5C22 6.98 17.52 2.5 12 2.5C6.48 2.5 2 6.98 2 12.5C2 18.02 6.48 22.5 12 22.5C17.52 22.5 22 18.02 22 12.5ZM11.47 16.53L8.47 13.53C8.32 13.38 8.25 13.19 8.25 13C8.25 12.81 8.32 12.62 8.47 12.47C8.76 12.18 9.24 12.18 9.53 12.47L11.25 14.19L11.25 9C11.25 8.59 11.59 8.25 12 8.25C12.41 8.25 12.75 8.59 12.75 9L12.75 14.19L14.47 12.47C14.76 12.18 15.24 12.18 15.53 12.47C15.82 12.76 15.82 13.24 15.53 13.53L12.53 16.53C12.24 16.82 11.76 16.82 11.47 16.53Z" fill="white"/>
</svg>
