<svg width="34" height="34" viewBox="0 0 34 34" fill="none" xmlns="http://www.w3.org/2000/svg">
<path fill-rule="evenodd" clip-rule="evenodd" d="M17.0005 19.0026L25.0146 27.0166C25.2818 27.2747 25.6396 27.4175 26.0111 27.4143C26.3825 27.411 26.7379 27.2621 27.0005 26.9994C27.2632 26.7367 27.4122 26.3814 27.4154 26.01C27.4186 25.6385 27.2758 25.2807 27.0178 25.0135L19.0037 16.9994L27.0178 8.98531C27.2758 8.71813 27.4186 8.36028 27.4154 7.98883C27.4122 7.61738 27.2632 7.26207 27.0005 6.99941C26.7379 6.73674 26.3825 6.58775 26.0111 6.58453C25.6396 6.5813 25.2818 6.72409 25.0146 6.98215L17.0005 14.9962L8.98644 6.98215C8.71805 6.73047 8.36227 6.59308 7.99439 6.59906C7.62651 6.60503 7.27538 6.7539 7.0153 7.01416C6.75523 7.27442 6.60661 7.62565 6.6009 7.99354C6.59518 8.36142 6.73282 8.7171 6.98469 8.98531L14.9974 16.9994L6.98327 25.0135C6.84797 25.1442 6.74004 25.3005 6.6658 25.4733C6.59155 25.6462 6.55247 25.8321 6.55083 26.0202C6.5492 26.2083 6.58504 26.3948 6.65628 26.5689C6.72751 26.743 6.8327 26.9012 6.96571 27.0342C7.09873 27.1672 7.2569 27.2724 7.431 27.3436C7.60511 27.4149 7.79165 27.4507 7.97976 27.4491C8.16786 27.4475 8.35376 27.4084 8.5266 27.3341C8.69943 27.2599 8.85576 27.152 8.98644 27.0166L17.0005 19.0026Z" fill="white"/>
</svg>
