<svg width="141" height="22" viewBox="0 0 141 22" fill="none" xmlns="http://www.w3.org/2000/svg">
<path d="M13.5942 13.726V22H16V0H12.4065C8.87518 0 5.90621 2.38524 5.90621 7.033C5.90621 10.3488 7.21899 12.1463 9.18791 13.1377L5 22H7.78137L11.594 13.726H13.5942ZM13.5867 11.796H12.3058C10.2118 11.796 8.49246 10.6494 8.49246 7.08572C8.49246 3.39866 10.3675 2.08239 12.3057 2.08239H13.5867V11.796Z" fill="#ED143B"/>
<path d="M39.324 11.86V13.57H38.172V16H36.3V13.57H30.342V13.174L34.428 4.03H36.408L32.916 11.86H36.336L36.66 8.53H38.172V11.86H39.324ZM41.0138 16V13.696H43.2098V16H41.0138ZM44.1794 4.03H52.4774V4.318L47.8334 16H45.7814L49.8674 5.794H44.1794V4.03Z" fill="white"/>
<path d="M68.9996 14.5135L71.7662 16.1868C72.2729 16.4935 72.8929 16.0402 72.7596 15.4668L72.0262 12.3202L74.4729 10.2002C74.9196 9.8135 74.6796 9.08017 74.0929 9.0335L70.8729 8.76017L69.6129 5.78684C69.3862 5.24684 68.6129 5.24684 68.3862 5.78684L67.1262 8.7535L63.9062 9.02684C63.3196 9.0735 63.0796 9.80684 63.5262 10.1935L65.9729 12.3135L65.2396 15.4602C65.1062 16.0335 65.7262 16.4868 66.2329 16.1802L68.9996 14.5135Z" fill="white"/>
<path d="M84.9996 14.5135L87.7662 16.1868C88.2729 16.4935 88.8929 16.0402 88.7596 15.4668L88.0262 12.3202L90.4729 10.2002C90.9196 9.8135 90.6796 9.08017 90.0929 9.0335L86.8729 8.76017L85.6129 5.78684C85.3862 5.24684 84.6129 5.24684 84.3862 5.78684L83.1262 8.7535L79.9062 9.02684C79.3196 9.0735 79.0796 9.80684 79.5262 10.1935L81.9729 12.3135L81.2396 15.4602C81.1062 16.0335 81.7262 16.4868 82.2329 16.1802L84.9996 14.5135Z" fill="white"/>
<path d="M101 14.5135L103.766 16.1868C104.273 16.4935 104.893 16.0402 104.76 15.4668L104.026 12.3202L106.473 10.2002C106.92 9.8135 106.68 9.08017 106.093 9.0335L102.873 8.76017L101.613 5.78684C101.386 5.24684 100.613 5.24684 100.386 5.78684L99.1262 8.7535L95.9062 9.02684C95.3196 9.0735 95.0796 9.80684 95.5262 10.1935L97.9729 12.3135L97.2396 15.4602C97.1062 16.0335 97.7262 16.4868 98.2329 16.1802L101 14.5135Z" fill="white"/>
<path d="M117 14.5135L119.766 16.1868C120.273 16.4935 120.893 16.0402 120.76 15.4668L120.026 12.3202L122.473 10.2002C122.92 9.8135 122.68 9.08017 122.093 9.0335L118.873 8.76017L117.613 5.78684C117.386 5.24684 116.613 5.24684 116.386 5.78684L115.126 8.7535L111.906 9.02684C111.32 9.0735 111.08 9.80684 111.526 10.1935L113.973 12.3135L113.24 15.4602C113.106 16.0335 113.726 16.4868 114.233 16.1802L117 14.5135Z" fill="white"/>
<path d="M133 14.5135L135.766 16.1868C136.273 16.4935 136.893 16.0402 136.76 15.4668L136.026 12.3202L138.473 10.2002C138.92 9.8135 138.68 9.08017 138.093 9.0335L134.873 8.76017L133.613 5.78684C133.386 5.24684 132.613 5.24684 132.386 5.78684L131.126 8.7535L127.906 9.02684C127.32 9.0735 127.08 9.80684 127.526 10.1935L129.973 12.3135L129.24 15.4602C129.106 16.0335 129.726 16.4868 130.233 16.1802L133 14.5135Z" fill="white"/>
</svg>
